Coordinates
version=1
nRows=22
nColumns=24
inDegrees=yes

Units are S.I. units (second, meters, Newtons, ...)
Angles are in degrees.

endheader
time	pelvis_tilt	pelvis_list	pelvis_rotation	pelvis_tx	pelvis_ty	pelvis_tz	hip_flexion_r	hip_adduction_r	hip_rotation_r	knee_angle_r	ankle_angle_r	subtalar_angle_r	mtp_angle_r	hip_flexion_l	hip_adduction_l	hip_rotation_l	knee_angle_l	ankle_angle_l	subtalar_angle_l	mtp_angle_l	lumbar_extension	lumbar_bending	lumbar_rotation
      0.76650000	     -4.67648581	      0.12682404	     -0.45605234	     -0.44357969	      1.05826735	      0.31190522	     17.61001040	      2.61468534	     -0.33340350	    -23.88317743	     13.03198598	     -3.67002918	      4.84730084	     22.68047466	     -5.29369939	     -7.36151097	    -71.52673470	      7.95977996	      6.62934023	      4.13228670	     -4.59963193	      2.79346824	      0.19635171
      0.77066667	     -4.62149675	      0.26350781	     -0.48332287	     -0.43803483	      1.05950808	      0.31200220	     17.03513194	      2.47641547	     -0.26403750	    -23.50405017	     13.13978638	     -3.60739540	      4.81527583	     23.09242755	     -5.15966097	     -7.47036551	    -71.03504397	      8.25272392	      7.00499354	      4.10499959	     -4.66208315	      2.63534010	      0.34219618
      0.77483333	     -4.57365127	      0.41821925	     -0.50847722	     -0.43250633	      1.06072211	      0.31206925	     16.47501184	      2.31467513	     -0.20282156	    -23.13556292	     13.21026233	     -3.56917468	      4.79828823	     23.49439896	     -4.99244987	     -7.56926858	    -70.46779838	      8.54048037	      7.39666207	      4.10010295	     -4.71515457	      2.45444893	      0.40741414
      0.77900000	     -4.50607525	      0.56350290	     -0.55252696	     -0.42697415	      1.06193083	      0.31214674	     15.88873500	      2.16689998	     -0.11723925	    -22.75306873	     13.30375756	     -3.51918138	      4.77604558	     23.85435716	     -4.84477518	     -7.68911390	    -69.83978164	      8.82024143	      7.83671753	      4.09666798	     -4.79920086	      2.30056259	      0.52472665
      0.78316667	     -4.42939150	      0.71072785	     -0.59719410	     -0.42143796	      1.06311759	      0.31220913	     15.29234917	      2.01386451	     -0.03836451	    -22.36736321	     13.38496907	     -3.47436329	      4.75371664	     24.18618193	     -4.69261991	     -7.81208998	    -69.14799629	      9.08630038	      8.26640595	      4.09852536	     -4.89117397	      2.13428768	      0.63876728
      0.78733333	     -4.38438220	      0.85933048	     -0.64445810	     -0.41589428	      1.06419946	      0.31226058	     14.73440546	      1.85805850	      0.03933378	    -21.99034766	     13.45565360	     -3.43303734	      4.73670845	     24.53728724	     -4.53682570	     -7.93534268	    -68.40135520	      9.33533390	      8.68315546	      4.10554123	     -4.94007516	      1.95369863	      0.72784465
      0.79150000	     -4.30375216	      0.97679809	     -0.70154649	     -0.41036821	      1.06528492	      0.31231844	     14.12902869	      1.73936003	      0.14118701	    -21.58798410	     13.54202270	     -3.40310125	      4.70239263	     24.83644455	     -4.42034447	     -8.06261714	    -67.61043298	      9.58654116	      9.11141255	      4.11763690	     -5.04441923	      1.82480510	      0.90740216
      0.79566667	     -4.22888132	      1.11341013	     -0.76591659	     -0.40483613	      1.06632477	      0.31236539	     13.53896068	      1.59680418	      0.23614293	    -21.20309878	     13.61818857	     -3.37597866	      4.67134187	     25.11884839	     -4.27954702	     -8.19773367	    -66.75099551	      9.81553839	      9.51381393	      4.13332358	     -5.12869441	      1.66973710	      1.02673037
      0.79983333	     -4.17037989	      1.26082576	     -0.83099311	     -0.39931207	      1.06730025	      0.31239207	     12.97518477	      1.43934065	      0.32501068	    -20.83277325	     13.67415311	     -3.34723373	      4.65200316	     25.39995882	     -4.11766763	     -8.32371543	    -65.82912066	     10.02150479	      9.88041616	      4.14740942	     -5.19823686	      1.50841259	      1.10572386
      0.80400000	     -4.09571111	      1.37111143	     -0.90313548	     -0.39378517	      1.06821142	      0.31243671	     12.38389666	      1.32572288	      0.43637328	    -20.44073099	     13.76367137	     -3.32510412	      4.61729919	     25.65365122	     -4.00581064	     -8.45418061	    -64.88028707	     10.22696129	     10.22142470	      4.17081673	     -5.29404806	      1.38207042	      1.27542395
      0.80816667	     -4.03972099	      1.49576384	     -0.97992814	     -0.38827223	      1.06905372	      0.31246140	     11.82283195	      1.19326251	      0.54463862	    -20.06374108	     13.83432838	     -3.30990385	      4.57932976	     25.90756834	     -3.87072505	     -8.58155185	    -63.86844602	     10.40965910	     10.51846472	      4.19689321	     -5.36405161	      1.24165986	      1.41525478
      0.81233333	     -4.00179365	      1.62410358	     -1.05828271	     -0.38276429	      1.06980673	      0.31247494	     11.29181258	      1.05337670	      0.64025884	    -19.70789543	     13.89707528	     -3.29245818	      4.55763042	     26.16398090	     -3.72802798	     -8.70361874	    -62.80470060	     10.57444535	     10.77647826	      4.21358607	     -5.40542940	      1.10233361	      1.49377997
      0.81650000	     -3.94959587	      1.72638615	     -1.14149309	     -0.37724688	      1.07050946	      0.31249656	     10.73655969	      0.94394838	      0.75277687	    -19.33294964	     13.99170857	     -3.28350114	      4.52189278	     26.39064095	     -3.61800369	     -8.82685532	    -61.70744765	     10.72523707	     10.98469308	      4.23878887	     -5.46905941	      0.99018618	      1.65619171
      0.82066667	     -3.89183935	      1.83722683	     -1.22564778	     -0.37176455	      1.07117071	      0.31250165	     10.18488698	      0.82125098	      0.86235655	    -18.97206105	     14.07231105	     -3.26877906	      4.48169016	     26.59374307	     -3.48951980	     -8.93704985	    -60.55489275	     10.85951774	     11.14607741	      4.26556068	     -5.54875736	      0.86711591	      1.79914690
      0.82483333	     -3.87052752	      1.93208768	     -1.30900661	     -0.36627720	      1.07169206	      0.31250030	      9.67601000	      0.71606458	      0.97065671	    -18.61954047	     14.15366655	     -3.26696993	      4.44066565	     26.82402492	     -3.37802435	     -9.03754089	    -59.36806846	     10.97902579	     11.26897666	      4.29185094	     -5.57937187	      0.76373457	      1.93092473
      0.82900000	     -3.85369622	      2.02160130	     -1.39156454	     -0.36080761	      1.07213772	      0.31248479	      9.17627517	      0.61407246	      1.07591388	    -18.27263986	     14.24060300	     -3.25797646	      4.39378677	     27.04428723	     -3.26665107	     -9.12370991	    -58.13991215	     11.08433746	     11.34185390	      4.32035441	     -5.61158254	      0.66819566	      2.06852959
      0.83316667	     -3.86921528	      2.11885093	     -1.47293764	     -0.35533025	      1.07247361	      0.31246236	      8.71893747	      0.50100349	      1.16719484	    -17.93973153	     14.32015384	     -3.24213937	      4.36902703	     27.28060913	     -3.14551403	     -9.20609587	    -56.86337083	     11.17784673	     11.39076638	      4.33464821	     -5.60646654	      0.56670543	      2.14369366
      0.83733333	     -3.87674452	      2.19771309	     -1.55848787	     -0.34988350	      1.07274926	      0.31243545	      8.25923517	      0.40876516	      1.27275893	    -17.61944435	     14.41859045	     -3.23876920	      4.33732857	     27.49248890	     -3.03842009	     -9.26683638	    -55.54728167	     11.24522340	     11.38053786	      4.35163939	     -5.60099723	      0.48779437	      2.26820442
      0.84150000	     -3.88174406	      2.25839373	     -1.63462893	     -0.34443787	      1.07295875	      0.31239206	      7.79319939	      0.33357063	      1.36332008	    -17.29151361	     14.51686765	     -3.23624841	      4.30318499	     27.68950523	     -2.94689170	     -9.31048522	    -54.19941620	     11.30799225	     11.34366918	      4.36946050	     -5.60869625	      0.42715924	      2.39572357
      0.84566667	     -3.90881646	      2.31215399	     -1.70670388	     -0.33900152	      1.07306903	      0.31233799	      7.35300602	      0.26516608	      1.45343476	    -16.96693829	     14.61701354	     -3.23481501	      4.26659068	     27.89541565	     -2.85935745	     -9.33959827	    -52.81438009	     11.35441308	     11.27593916	      4.38769914	     -5.59245103	      0.37897116	      2.51872223
      0.84983333	     -3.93074885	      2.36451343	     -1.77476788	     -0.33357609	      1.07312200	      0.31226729	      6.91136800	      0.19474411	      1.53020705	    -16.65046878	     14.74354466	     -3.21929623	      4.20334116	     28.07767641	     -2.76595842	     -9.35052179	    -51.38634883	     11.37544894	     11.14528206	      4.42091952	     -5.58808552	      0.33172630	      2.68480798
      0.85400000	     -3.99472974	      2.41036170	     -1.83958342	     -0.32815331	      1.07303334	      0.31220108	      6.52539273	      0.13309697	      1.60321743	    -16.35675972	     14.84695766	     -3.21265916	      4.16506502	     28.28840872	     -2.68058819	     -9.34799413	    -49.92125599	     11.41125846	     11.05714453	      4.43946808	     -5.52849339	      0.28925688	      2.76483209
